<svg xmlns="http://www.w3.org/2000/svg" xmlns:xlink="http://www.w3.org/1999/xlink" version="1.1" x="0px" y="0px" viewBox="0 0 80 100" enable-background="new 0 0 80 80" xml:space="preserve"><path d="M61.553,30.041c0.247-1.367,0.056-2.47-0.571-3.283c-0.438-0.57-0.996-0.872-1.472-1.031v-4.01c0-0.553-0.447-1-1-1h-6.159  h-6.16c-0.553,0-1,0.447-1,1v3.928c-0.109,0.05-0.209,0.115-0.293,0.199c-0.401,0.177-0.828,0.457-1.179,0.914  c-0.627,0.813-0.818,1.916-0.571,3.283c-1.162,0.994-3.815,3.676-4.026,7.586c-0.013,0.197-1.234,19.981,4.678,36.759  c0.142,0.4,0.52,0.668,0.943,0.668h7.509c0.035,0,0.065-0.016,0.099-0.02c0.034,0.004,0.064,0.02,0.099,0.02h7.509  c0.424,0,0.802-0.268,0.943-0.668c5.912-16.777,4.69-36.562,4.679-36.747C65.369,33.72,62.715,31.035,61.553,30.041z M59.246,73.054  h-6.797c-0.035,0-0.065,0.016-0.099,0.02c-0.034-0.004-0.064-0.02-0.099-0.02h-6.797c-4.948-14.581-4.517-31.274-4.368-34.676  c1.605,0.294,5.433,0.894,10.023,0.894c3.042,0,6.414-0.265,9.684-1.057c0.537-0.13,0.866-0.67,0.736-1.207  c-0.129-0.537-0.672-0.868-1.207-0.736c-7.865,1.903-16.632,0.545-18.995,0.114c0.656-2.614,2.608-4.403,3.277-4.953h12.262  c0.553,0,1-0.447,1-1s-0.447-1-1-1H45.079c-0.081-0.639-0.011-1.141,0.215-1.443c0.313-0.419,0.904-0.441,0.896-0.441h8.906  c0.553,0,1-0.447,1-1s-0.447-1-1-1H47.19v-2.831h5.16h5.159v3.831c0,0.541,0.445,0.983,0.986,1c0.006,0,0.597,0.022,0.91,0.441  c0.308,0.412,0.332,1.189,0.068,2.188c-0.106,0.403,0.049,0.83,0.389,1.07c0.035,0.025,3.507,2.529,3.72,6.51  C63.596,37.949,64.76,56.805,59.246,73.054z"/><path d="M42.009,25.209c0.141-0.534-0.179-1.081-0.713-1.221l-2.156-0.566c-2.266-0.597-4.665-0.26-6.587,0.924  c-1.805,1.112-3.051,2.886-3.514,4.994c0,0.001-0.001,0.001-0.001,0.002l-1.923,7.32H14.762c-0.94-1.37-2.138-2.439-3.651-2.628  c-0.553-0.066-1.048,0.32-1.116,0.868s0.32,1.048,0.868,1.116c0.459,0.057,0.888,0.294,1.29,0.644H5.738c-0.553,0-1,0.447-1,1  c0,2.222,0.318,4.344,0.871,6.319c0.014,0.101,0.031,0.202,0.078,0.298c0.002,0.005,0.007,0.008,0.01,0.013  c1.934,6.538,6.629,11.283,12.217,11.795v16.966h-4.107c-0.553,0-1,0.447-1,1s0.447,1,1,1h10.215c0.553,0,1-0.447,1-1s-0.447-1-1-1  h-4.107V56.087c7.35-0.674,13.175-8.669,13.175-18.425c0-0.553-0.447-1-1-1h-2.905l1.789-6.813c0.002-0.007,0-0.013,0.001-0.02  c0.002-0.009,0.009-0.017,0.011-0.026c0.338-1.59,1.269-2.923,2.618-3.755c1.458-0.897,3.291-1.151,5.03-0.693l2.156,0.566  C41.321,26.063,41.869,25.743,42.009,25.209z M26.59,38.662l-1.186,4.515c-2.971,0.107-6.324-0.673-8.045-1.238  c-0.098-0.034-0.197-0.056-0.296-0.088c-0.276-0.949-0.663-2.077-1.178-3.189H26.59z M19.152,47.529  c0.214,0.67,0.154,1.383-0.168,2.007c-0.647,1.254-2.279,1.787-3.546,1.133c-0.624-0.322-1.087-0.869-1.3-1.539  c-0.214-0.67-0.154-1.383,0.168-2.007c0.454-0.88,1.352-1.427,2.342-1.427c0.421,0,0.826,0.099,1.204,0.294  C18.477,46.313,18.939,46.859,19.152,47.529z M6.761,38.662h6.88c0.459,0.852,0.849,1.806,1.163,2.721  c-3.084-0.327-5.987,0.511-7.524,1.086C7.005,41.251,6.819,39.981,6.761,38.662z M23.292,53.039  c-1.36,0.713-2.835,1.115-4.379,1.115c-4.938,0-9.19-4.008-11.098-9.744c1.415-0.543,4.533-1.499,7.619-0.909  c0.03,0.122,0.056,0.232,0.082,0.343c-1.272,0.319-2.365,1.161-2.986,2.362c-0.567,1.1-0.673,2.354-0.297,3.533  c0.377,1.179,1.189,2.141,2.289,2.708c0.655,0.338,1.388,0.517,2.121,0.517c1.742,0,3.32-0.962,4.119-2.509  c0.567-1.1,0.673-2.354,0.297-3.533c-0.322-1.007-0.976-1.838-1.841-2.418c1.534,0.345,3.588,0.692,5.655,0.692c0,0,0.001,0,0.001,0  l-1.821,6.933C22.965,52.465,23.074,52.797,23.292,53.039z M25.221,51.746l1.759-6.698c1.134-0.158,2.206-0.472,3.14-0.989  C29.119,47.265,27.396,49.952,25.221,51.746z M31.065,38.662c-0.025,0.573-0.076,1.136-0.143,1.692  c-0.029,0.047-0.07,0.083-0.092,0.136c-0.554,1.329-1.777,2.068-3.29,2.425l1.117-4.253H31.065z"/>
<!-- <text x="0" y="95" fill="#000000" font-size="4px" font-weight="bold" font-family="'Helvetica Neue', Helvetica, Arial-Unicode, Arial, Sans-serif">Cocktail by jonata hangga will putra march stanly from the Noun Project</text><text x="0" y="99" fill="#000000" font-size="4px" font-weight="bold" font-family="'Helvetica Neue', Helvetica, Arial-Unicode, Arial, Sans-serif">from the Noun Project</text> -->
</svg>